<svg width="20" height="24" viewBox="0 0 20 24" fill="none" xmlns="http://www.w3.org/2000/svg">
<path fill-rule="evenodd" clip-rule="evenodd" d="M7.39844 6.7299C7.39844 8.4799 6.11604 9.89832 4.53272 9.89832C2.95032 9.89832 1.66699 8.4799 1.66699 6.7299C1.66699 4.98092 2.95032 3.5625 4.53272 3.5625C6.11604 3.5625 7.39844 4.98092 7.39844 6.7299ZM17.0781 5.34218C17.7707 5.34218 18.3337 5.9644 18.3337 6.7299C18.3337 7.49642 17.7707 8.11864 17.0781 8.11864H11.5985C10.905 8.11864 10.342 7.49642 10.342 6.7299C10.342 5.9644 10.905 5.34218 11.5985 5.34218H17.0781ZM2.92347 15.7106H8.40307C9.09658 15.7106 9.65954 16.3328 9.65954 17.0993C9.65954 17.8648 9.09658 18.4881 8.40307 18.4881H2.92347C2.22995 18.4881 1.66699 17.8648 1.66699 17.0993C1.66699 16.3328 2.22995 15.7106 2.92347 15.7106ZM15.4679 20.2292C17.0513 20.2292 18.3337 18.8107 18.3337 17.0618C18.3337 15.3118 17.0513 13.8933 15.4679 13.8933C13.8855 13.8933 12.6022 15.3118 12.6022 17.0618C12.6022 18.8107 13.8855 20.2292 15.4679 20.2292Z" fill="#7C6E45"/>
</svg>
