<svg width="17" height="20" viewBox="0 0 17 20" fill="none" xmlns="http://www.w3.org/2000/svg">
<path fill-rule="evenodd" clip-rule="evenodd" d="M16 17V8.29622C16 7.74476 15.7723 7.21777 15.3707 6.83982L9.87073 1.66335C9.10063 0.938551 7.89937 0.938551 7.12927 1.66335L1.62927 6.83982C1.2277 7.21777 1 7.74476 1 8.29622V17C1 18.1046 1.89543 19 3 19H3.75C4.7165 19 5.5 18.2165 5.5 17.25V16.5C5.5 14.8431 6.84315 13.5 8.5 13.5C10.1569 13.5 11.5 14.8431 11.5 16.5V17.25C11.5 18.2165 12.2835 19 13.25 19H14C15.1046 19 16 18.1046 16 17ZM0.943906 6.11162C0.341546 6.67855 0 7.46903 0 8.29622V17C0 18.6569 1.34315 20 3 20H3.75C5.26878 20 6.5 18.7688 6.5 17.25V16.5C6.5 15.3954 7.39543 14.5 8.5 14.5C9.60457 14.5 10.5 15.3954 10.5 16.5V17.25C10.5 18.7688 11.7312 20 13.25 20H14C15.6569 20 17 18.6569 17 17V8.29622C17 7.46903 16.6585 6.67855 16.0561 6.11162L10.5561 0.93515C9.40094 -0.15205 7.59905 -0.152048 6.4439 0.935152L0.943906 6.11162Z" fill="#FFB80D"/>
</svg>
