<svg width="18" height="20" viewBox="0 0 18 20" fill="none" xmlns="http://www.w3.org/2000/svg">
<path d="M16.6915 12.222L17.1312 11.9836L17.1248 11.9727L16.6915 12.222ZM16.0016 11.4814L16.2581 11.0522L16.2505 11.0476L16.2427 11.0433L16.0016 11.4814ZM16.6744 14.1439L17.1162 14.378L17.1201 14.3707L17.1237 14.3632L16.6744 14.1439ZM16.0783 15.2689L15.6365 15.0348L15.6356 15.0364L16.0783 15.2689ZM13.6682 15.9626L13.376 16.3685L13.3848 16.3745L13.6682 15.9626ZM11.3432 17.4532L10.8432 17.4395V17.4532H11.3432ZM6.65072 17.4532H7.1508L7.15063 17.4441L6.65072 17.4532ZM4.33428 15.9626L4.61769 16.3745L4.62592 16.3689L4.63391 16.3629L4.33428 15.9626ZM1.91565 15.2689L1.47246 15.5004L1.47298 15.5013L1.91565 15.2689ZM1.32802 14.1439L0.883885 14.3735L0.88484 14.3754L1.32802 14.1439ZM1.31099 12.222L1.75056 12.4603L1.75599 12.4503L1.76096 12.44L1.31099 12.222ZM1.9923 11.4814L1.7512 11.0433L1.74061 11.0492L1.73031 11.0555L1.9923 11.4814ZM2.52882 10.8814L2.96285 11.1296L2.96702 11.1223L2.97095 11.1149L2.52882 10.8814ZM1.97526 8.53762L2.25088 8.12034L2.24293 8.1153L1.97526 8.53762ZM1.34506 5.8845L1.78812 6.11623L1.78943 6.1137L1.34506 5.8845ZM1.91565 4.77825L1.47423 4.54332L1.47128 4.54904L1.91565 4.77825ZM4.31725 4.06575L4.04811 4.48728L4.05769 4.4931L4.31725 4.06575ZM6.45484 3.41887L6.89396 3.65821L6.89862 3.64923L6.45484 3.41887ZM6.65072 2.59387L6.15121 2.61714L6.15163 2.6241L6.65072 2.59387ZM6.88918 1.60012L7.32271 1.84954L7.32874 1.83842L6.88918 1.60012ZM8.39656 0.625122V0.125122H8.38902L8.38149 0.125349L8.39656 0.625122ZM11.1133 1.60012L10.6737 1.83842L10.6742 1.83941L11.1133 1.60012ZM11.3432 2.59387L10.8444 2.55902L10.8441 2.56365L11.3432 2.59387ZM11.5391 3.41887L11.0952 3.64928L11.1001 3.65816L11.5391 3.41887ZM13.6852 4.06575L13.9426 4.49441L13.9495 4.49028L13.9562 4.48594L13.6852 4.06575ZM16.0783 4.77825L16.5227 4.54904L16.5213 4.54652L16.0783 4.77825ZM16.6489 5.8845L16.2045 6.11372L16.2075 6.1194L16.6489 5.8845ZM16.0187 8.53762L15.7528 8.11398L15.7431 8.12041L16.0187 8.53762ZM15.4736 10.8814L15.9139 10.6444L15.9138 10.6442L15.4736 10.8814ZM17.1248 11.9727C16.9369 11.646 16.6535 11.2885 16.2581 11.0522L15.7451 11.9106C15.9459 12.0305 16.1224 12.2355 16.2581 12.4713L17.1248 11.9727ZM17.1237 14.3632C17.4884 13.6161 17.536 12.7308 17.131 11.9837L16.2519 12.4603C16.4771 12.8757 16.4736 13.4154 16.2251 13.9246L17.1237 14.3632ZM16.5201 15.503L17.1162 14.378L16.2326 13.9098L15.6365 15.0348L16.5201 15.503ZM14.5709 16.7439C15.3833 16.7439 16.1301 16.2455 16.5209 15.5013L15.6356 15.0364C15.3962 15.4922 14.9678 15.7439 14.5709 15.7439V16.7439ZM13.3848 16.3745C13.7443 16.622 14.1762 16.7439 14.5709 16.7439V15.7439C14.3694 15.7439 14.137 15.6783 13.9516 15.5507L13.3848 16.3745ZM12.9187 16.247C13.1223 16.247 13.2648 16.2884 13.3761 16.3684L13.9603 15.5568C13.6286 15.3181 13.2602 15.247 12.9187 15.247V16.247ZM11.843 17.467C11.8626 16.7559 12.3971 16.247 12.9187 16.247V15.247C11.7542 15.247 10.8749 16.2943 10.8434 17.4395L11.843 17.467ZM9.58033 19.8751C10.8739 19.8751 11.8432 18.7678 11.8432 17.4532H10.8432C10.8432 18.2949 10.2455 18.8751 9.58033 18.8751V19.8751ZM8.42211 19.8751H9.58033V18.8751H8.42211V19.8751ZM6.15072 17.4532C6.15072 18.7695 7.1215 19.8751 8.42211 19.8751V18.8751C7.74694 18.8751 7.15072 18.2933 7.15072 17.4532H6.15072ZM5.08372 16.247C5.60576 16.247 6.13783 16.7556 6.1508 17.4624L7.15063 17.4441C7.12954 16.2946 6.2479 15.247 5.08372 15.247V16.247ZM4.63391 16.3629C4.73101 16.2902 4.86719 16.247 5.08372 16.247V15.247C4.73817 15.247 4.36337 15.3163 4.03465 15.5623L4.63391 16.3629ZM3.43155 16.7439C3.81637 16.7439 4.25703 16.6227 4.61769 16.3745L4.05087 15.5507C3.8665 15.6776 3.62584 15.7439 3.43155 15.7439V16.7439ZM1.47298 15.5013C1.86449 16.2468 2.61204 16.7439 3.43155 16.7439V15.7439C3.02471 15.7439 2.59702 15.4909 2.35832 15.0364L1.47298 15.5013ZM0.88484 14.3754L1.47247 15.5004L2.35883 15.0374L1.77121 13.9124L0.88484 14.3754ZM0.871428 11.9837C0.469438 12.7252 0.500714 13.6325 0.883889 14.3735L1.77216 13.9142C1.52513 13.4365 1.52234 12.8813 1.75056 12.4603L0.871428 11.9837ZM1.73031 11.0555C1.36361 11.2811 1.04087 11.6328 0.86102 12.004L1.76096 12.44C1.85364 12.2487 2.04188 12.0379 2.25428 11.9072L1.73031 11.0555ZM2.0948 10.6331C1.9591 10.8704 1.86269 10.982 1.7512 11.0433L2.23339 11.9194C2.59882 11.7183 2.80899 11.3986 2.96285 11.1296L2.0948 10.6331ZM1.6997 8.95483C2.19617 9.28275 2.39967 10.0553 2.0867 10.6479L2.97095 11.1149C3.50961 10.095 3.20213 8.74875 2.25083 8.12041L1.6997 8.95483ZM0.901998 5.65277C0.309409 6.78578 0.62126 8.27141 1.70759 8.95994L2.24293 8.1153C1.64304 7.73508 1.40984 6.83947 1.78812 6.11623L0.901998 5.65277ZM1.47128 4.54904L0.900685 5.65529L1.78943 6.1137L2.36002 5.00745L1.47128 4.54904ZM4.58632 3.64432C3.45982 2.92507 2.08857 3.38906 1.47427 4.54334L2.35703 5.01315C2.73062 4.31118 3.47142 4.11892 4.04818 4.48717L4.58632 3.64432ZM6.01582 3.17958C5.70232 3.75476 5.04668 3.92377 4.5768 3.63839L4.05769 4.4931C5.06966 5.10772 6.3387 4.67673 6.89387 3.65816L6.01582 3.17958ZM6.15163 2.6241C6.16192 2.79404 6.11659 2.98524 6.01107 3.18851L6.89862 3.64923C7.06562 3.32751 7.17358 2.9562 7.1498 2.56365L6.15163 2.6241ZM6.45578 1.35078C6.24817 1.71164 6.12962 2.1527 6.15126 2.61714L7.15018 2.5706C7.13775 2.3038 7.20656 2.0511 7.32257 1.84946L6.45578 1.35078ZM8.38149 0.125349C7.56374 0.150012 6.84057 0.64066 6.44961 1.36183L7.32874 1.83842C7.56799 1.39708 7.98601 1.13773 8.41164 1.12489L8.38149 0.125349ZM9.59736 0.125122H8.39656V1.12512H9.59736V0.125122ZM11.5528 1.36183C11.167 0.650113 10.4436 0.125122 9.59736 0.125122V1.12512C10.0116 1.12512 10.4293 1.38763 10.6737 1.83842L11.5528 1.36183ZM11.842 2.62873C11.8755 2.14928 11.7414 1.70785 11.5523 1.36083L10.6742 1.83941C10.7917 2.0549 10.862 2.30721 10.8444 2.55902L11.842 2.62873ZM11.9829 3.18851C11.8773 2.98524 11.832 2.79404 11.8423 2.6241L10.8441 2.56365C10.8203 2.9562 10.9283 3.32751 11.0953 3.64923L11.9829 3.18851ZM13.4278 3.63709C12.9467 3.92598 12.2905 3.75269 11.9781 3.17958L11.1001 3.65816C11.6564 4.6788 12.9248 5.10552 13.9426 4.49441L13.4278 3.63709ZM16.5213 4.54652C15.9156 3.38833 14.5325 2.92434 13.4142 3.64555L13.9562 4.48594C14.5241 4.11966 15.2701 4.31192 15.6352 5.00998L16.5213 4.54652ZM17.0932 5.65529L16.5226 4.54904L15.6339 5.00745L16.2045 6.1137L17.0932 5.65529ZM16.2844 8.96115C17.381 8.27306 17.6944 6.78478 17.0903 5.64959L16.2075 6.1194C16.5912 6.84047 16.3596 7.73343 15.7529 8.11409L16.2844 8.96115ZM15.9138 10.6442C15.5956 10.0535 15.7978 9.2827 16.2942 8.95483L15.7431 8.12041C14.7917 8.74879 14.483 10.0968 15.0334 11.1185L15.9138 10.6442ZM16.2427 11.0433C16.1328 10.9828 16.0364 10.872 15.9139 10.6444L15.0334 11.1184C15.1833 11.397 15.3935 11.7174 15.7605 11.9194L16.2427 11.0433ZM9.00973 12.1532C7.98855 12.1532 7.0911 11.2467 7.0911 10.0095H6.0911C6.0911 11.716 7.35679 13.1532 9.00973 13.1532V12.1532ZM10.9028 10.0095C10.9028 11.2539 10.0243 12.1532 9.00973 12.1532V13.1532C10.6692 13.1532 11.9028 11.7088 11.9028 10.0095H10.9028ZM9.00973 7.85637C10.0222 7.85637 10.9028 8.76265 10.9028 10.0095H11.9028C11.9028 8.3126 10.6714 6.85637 9.00973 6.85637V7.85637ZM7.0911 10.0095C7.0911 8.76988 7.99075 7.85637 9.00973 7.85637V6.85637C7.3546 6.85637 6.0911 8.30537 6.0911 10.0095H7.0911Z" fill="#7C6E45"/>
</svg>
