<svg width="18" height="21" viewBox="0 0 18 21" fill="none" xmlns="http://www.w3.org/2000/svg">
<path d="M16.9995 10.5L17.3504 10.8562L17.7121 10.5L17.3504 10.1438L16.9995 10.5ZM9.80135 0.5H3.89167V1.5H9.80135V0.5ZM3.89167 0.5C2.67448 0.5 1.67316 0.982014 0.991742 1.89212C0.324685 2.78305 0 4.03479 0 5.52813H1C1 4.16209 1.29935 3.14976 1.79223 2.49147C2.27075 1.85236 2.96526 1.5 3.89167 1.5V0.5ZM0 5.52813V15.2125H1V5.52813H0ZM0 15.2125C0 16.7276 0.32399 17.983 0.992397 18.8716C1.67574 19.7802 2.6782 20.25 3.89167 20.25V19.25C2.96154 19.25 2.26817 18.9042 1.79158 18.2705C1.30005 17.617 1 16.6036 1 15.2125H0ZM3.89167 20.25H9.80135V19.25H3.89167V20.25ZM9.80135 20.25C11.0302 20.25 12.0342 19.7815 12.7143 18.8701C13.3783 17.9804 13.6923 16.7247 13.6923 15.2125H12.6923C12.6923 16.6066 12.3999 17.6196 11.9129 18.272C11.4421 18.9029 10.7507 19.25 9.80135 19.25V20.25ZM13.6923 5.5C13.6923 4.00968 13.3777 2.76347 12.7137 1.8778C12.0341 0.971303 11.0309 0.5 9.80135 0.5V1.5C10.75 1.5 11.4423 1.84901 11.9136 2.47766C12.4005 3.12715 12.6923 4.13095 12.6923 5.5H13.6923ZM13.6923 15.2125V15.0625H12.6923V15.2125H13.6923ZM6.8457 11H16.9995V10H6.8457V11ZM17.3504 10.1438L14.8119 7.64376L14.1102 8.35624L16.6487 10.8562L17.3504 10.1438ZM16.6487 10.1438L14.1102 12.6438L14.8119 13.3562L17.3504 10.8562L16.6487 10.1438Z" fill="#7C6E45"/>
</svg>
