<svg width="18" height="17" viewBox="0 0 18 17" fill="none" xmlns="http://www.w3.org/2000/svg">
<path d="M17 13.5C17 15.433 15.6569 17 14 17C12.3431 17 11 15.433 11 13.5C11 11.567 12.3431 10 14 10C15.6569 10 17 11.567 17 13.5Z" fill="#D9D9D9"/>
<path d="M1.12832 3.49976C1.1499 1.56688 2.51045 0.0149733 4.16721 0.0334712C5.82396 0.0519692 7.14952 1.63387 7.12794 3.56675C7.10636 5.49962 5.74581 7.05153 4.08905 7.03303C2.4323 7.01454 1.10674 5.43264 1.12832 3.49976Z" fill="#D9D9D9"/>
<path d="M10 3.5C10 2.67157 10.6716 2 11.5 2H16.5C17.3284 2 18 2.67157 18 3.5V3.5C18 4.32843 17.3284 5 16.5 5H11.5C10.6716 5 10 4.32843 10 3.5V3.5Z" fill="#D9D9D9"/>
<path d="M8.01626 13.5773C8.00701 14.4057 7.32798 15.0697 6.49961 15.0605L1.49992 15.0046C0.671542 14.9954 0.00750827 14.3164 0.0167572 13.488V13.488C0.0260062 12.6596 0.705035 11.9956 1.53341 12.0048L6.5331 12.0606C7.36147 12.0699 8.02551 12.7489 8.01626 13.5773V13.5773Z" fill="#D9D9D9"/>
</svg>
