<svg width="31" height="38" viewBox="0 0 31 38" fill="none" xmlns="http://www.w3.org/2000/svg">
<path d="M15.133 20.7249C20.8774 20.7249 25.4856 16.1168 25.4856 10.3756H23.4856C23.4856 15.0118 19.7733 18.7249 15.133 18.7249V20.7249ZM4.78027 10.3756C4.78027 16.1169 9.39038 20.7249 15.133 20.7249V18.7249C10.4943 18.7249 6.78027 15.0117 6.78027 10.3756H4.78027ZM15.133 0.0280762C9.39063 0.0280762 4.78027 4.63397 4.78027 10.3756H6.78027C6.78027 5.73972 10.494 2.02808 15.133 2.02808V0.0280762ZM25.4856 10.3756C25.4856 4.63409 20.8772 0.0280762 15.133 0.0280762V2.02808C19.7735 2.02808 23.4856 5.73959 23.4856 10.3756H25.4856ZM0 30.3105C0 31.7614 0.49777 32.9815 1.39347 33.9588C2.26853 34.9137 3.48098 35.5925 4.85916 36.0806C7.60218 37.052 11.2774 37.3614 15.1333 37.3614V35.3614C11.326 35.3614 7.93464 35.048 5.5268 34.1953C4.32954 33.7713 3.44551 33.2378 2.86793 32.6076C2.311 31.9999 2 31.2622 2 30.3105H0ZM15.1333 23.302C11.2995 23.302 7.62541 23.6001 4.87851 24.5595C3.49854 25.0414 2.28163 25.714 1.40232 26.6646C0.501715 27.6382 0 28.8572 0 30.3105H2C2 29.3602 2.31214 28.6263 2.87051 28.0227C3.45018 27.396 4.33738 26.8669 5.53794 26.4476C7.95207 25.6045 11.3446 25.302 15.1333 25.302V23.302ZM30.2666 30.3529C30.2666 28.902 29.769 27.682 28.8734 26.7046C27.9985 25.7497 26.7862 25.0709 25.4081 24.5828C22.6653 23.6114 18.99 23.302 15.1333 23.302V25.302C18.9415 25.302 22.3328 25.6154 24.7404 26.4681C25.9376 26.892 26.8214 27.4255 27.3989 28.0557C27.9557 28.6634 28.2666 29.4011 28.2666 30.3529H30.2666ZM15.1333 37.3614C18.9671 37.3614 22.6412 37.0632 25.3881 36.1039C26.7681 35.6219 27.985 34.9494 28.8643 33.9988C29.7649 33.0251 30.2666 31.8062 30.2666 30.3529H28.2666C28.2666 31.3032 27.9545 32.037 27.3961 32.6407C26.8164 33.2673 25.9292 33.7964 24.7287 34.2157C22.3145 35.0588 18.922 35.3614 15.1333 35.3614V37.3614Z" fill="white"/>
</svg>
