<svg width="34" height="35" viewBox="0 0 34 35" fill="none" xmlns="http://www.w3.org/2000/svg">
<path d="M2 16H6.73077V34H26.9231V16H32.2308L17 1L2 16Z" stroke="#FFBB00"/>
<path d="M17.2198 26.3876C16.6025 26.3876 16.0271 26.2987 15.4936 26.1209C14.9601 25.943 14.4998 25.6867 14.1127 25.3519C13.7256 25.0067 13.4327 24.6039 13.2339 24.1436C13.1607 23.9763 13.1555 23.8246 13.2182 23.6886C13.2915 23.5421 13.417 23.4479 13.5948 23.4061C13.7308 23.3643 13.8616 23.3799 13.9871 23.4532C14.1231 23.5159 14.2225 23.6206 14.2853 23.767C14.4945 24.2169 14.8607 24.5778 15.3838 24.8498C15.9068 25.1218 16.5188 25.2578 17.2198 25.2578C17.7533 25.2578 18.2241 25.1741 18.6321 25.0067C19.0401 24.8289 19.3591 24.5778 19.5893 24.2535C19.8299 23.9187 19.9502 23.5107 19.9502 23.0295C19.9607 22.3809 19.741 21.8264 19.2911 21.3661C18.8518 20.8953 18.1613 20.5972 17.2198 20.4716C16.4875 20.3775 15.8493 20.1787 15.3053 19.8753C14.7613 19.5719 14.3428 19.1849 14.0499 18.7141C13.757 18.2433 13.6105 17.7046 13.6105 17.0978C13.6105 16.4596 13.7727 15.9156 14.097 15.4658C14.4318 15.0159 14.8816 14.6707 15.4465 14.4301C16.0219 14.1895 16.6653 14.0692 17.3767 14.0692C17.9416 14.0692 18.4438 14.1581 18.8831 14.3359C19.333 14.5033 19.7201 14.7335 20.0444 15.0264C20.3687 15.3193 20.6302 15.6436 20.829 15.9993C20.9231 16.1667 20.9545 16.3289 20.9231 16.4858C20.9022 16.6323 20.8185 16.7421 20.6721 16.8153C20.5465 16.899 20.4053 16.9147 20.2484 16.8624C20.1019 16.8101 19.9868 16.7159 19.9031 16.5799C19.6939 16.2138 19.3905 15.8895 18.993 15.607C18.5955 15.3246 18.0567 15.1833 17.3767 15.1833C16.5921 15.1729 15.9644 15.3298 15.4936 15.6541C15.0228 15.9784 14.7875 16.4701 14.7875 17.1292C14.7875 17.4744 14.8607 17.8039 15.0071 18.1178C15.1641 18.4316 15.4361 18.7089 15.8231 18.9495C16.2102 19.1901 16.7542 19.3627 17.4551 19.4673C18.6582 19.6452 19.5736 20.0375 20.2013 20.6443C20.8395 21.2406 21.1585 22.0252 21.1585 22.9981C21.1585 23.5421 21.0539 24.0233 20.8447 24.4418C20.6459 24.8603 20.3687 25.2159 20.013 25.5089C19.6573 25.8018 19.2388 26.0215 18.7576 26.1679C18.2764 26.3144 17.7638 26.3876 17.2198 26.3876ZM17.3296 27.7843C17.2145 27.7843 17.1151 27.7424 17.0315 27.6587C16.9582 27.5855 16.9216 27.4809 16.9216 27.3449V13.3316C16.9216 13.1852 16.9582 13.0753 17.0315 13.0021C17.1151 12.9289 17.2145 12.8923 17.3296 12.8923C17.4342 12.8923 17.5231 12.9289 17.5964 13.0021C17.6801 13.0753 17.7219 13.1852 17.7219 13.3316V27.3449C17.7219 27.4809 17.6801 27.5855 17.5964 27.6587C17.5231 27.7424 17.4342 27.7843 17.3296 27.7843Z" fill="#FFBB00"/>
</svg>
