<svg width="41" height="41" viewBox="0 0 41 41" fill="none" xmlns="http://www.w3.org/2000/svg">
<path d="M20.5 10.9167C15.2157 10.9167 10.9167 15.2158 10.9167 20.5V24.4704C10.9167 25.4517 11.7763 26.25 12.8333 26.25H13.7917C14.0458 26.25 14.2896 26.1491 14.4693 25.9693C14.649 25.7896 14.75 25.5459 14.75 25.2917V20.363C14.75 20.1088 14.649 19.8651 14.4693 19.6853C14.2896 19.5056 14.0458 19.4046 13.7917 19.4046H12.9215C13.4543 15.6959 16.6456 12.8334 20.5 12.8334C24.3544 12.8334 27.5457 15.6959 28.0785 19.4046H27.2083C26.9542 19.4046 26.7104 19.5056 26.5307 19.6853C26.351 19.8651 26.25 20.1088 26.25 20.363V26.25C26.25 27.3071 25.3904 28.1667 24.3333 28.1667H22.4167V27.2084H18.5833V30.0834H24.3333C26.4474 30.0834 28.1667 28.3641 28.1667 26.25C29.2237 26.25 30.0833 25.4517 30.0833 24.4704V20.5C30.0833 15.2158 25.7842 10.9167 20.5 10.9167Z" fill="#FFBB00"/>
<path d="M39.9998 20.4999C39.9998 9.7304 31.2694 1 20.4999 1C9.7304 1 1 9.7304 1 20.4999C1 31.2694 9.7304 39.9998 20.4999 39.9998C31.2694 39.9998 39.9998 31.2694 39.9998 20.4999Z" stroke="#FFBB00"/>
</svg>
