<svg width="40" height="40" viewBox="0 0 40 40" fill="none" xmlns="http://www.w3.org/2000/svg">
<rect x="0.5" y="0.5" width="38.9998" height="38.9998" rx="19.4999" stroke="#FFBB00"/>
<path d="M12.9999 20.8811C12.9999 25.0226 17.1236 28.3799 22.2104 28.3799C22.2104 28.3799 24.4023 30.479 29.3331 29.7303C28.7498 26.348 29.9314 24.9714 29.9314 24.9714C30.8734 23.7951 31.4209 22.3902 31.4209 20.8811C31.4209 16.7397 27.2972 13.3823 22.2104 13.3823C17.1236 13.3823 12.9999 16.7397 12.9999 20.8811Z" fill="#FFBB00" stroke="#121317"/>
<path d="M26.7542 17.4988C26.7542 21.6403 22.6306 24.9976 17.5437 24.9976C17.5437 24.9976 13.2641 29.8366 8.33333 29.0879C12.6315 25.6793 9.82278 21.5891 9.82278 21.5891C8.88073 20.4127 8.33325 19.0078 8.33325 17.4988C8.33325 13.3573 12.4569 10 17.5437 10C22.6306 10 26.7542 13.3573 26.7542 17.4988Z" fill="#FFBB00" stroke="#121317"/>
</svg>
