<svg width="40" height="40" viewBox="0 0 40 40" fill="none" xmlns="http://www.w3.org/2000/svg">
<rect x="0.5" y="0.5" width="38.9998" height="38.9998" rx="19.4999" stroke="#FFBB00"/>
<path d="M8.98946 19.5589C14.8055 16.9717 18.6838 15.266 20.6243 14.442C26.1649 12.089 27.3162 11.6803 28.0666 11.6666C28.2316 11.6638 28.6006 11.7056 28.8396 11.9036C29.0415 12.0708 29.097 12.2967 29.1236 12.4553C29.1502 12.6138 29.1833 12.975 29.157 13.2572C28.8567 16.4782 27.5576 24.2947 26.8966 27.9023C26.617 29.4288 26.0663 29.9406 25.5332 29.9907C24.3746 30.0995 23.4948 29.2089 22.3727 28.4579C20.6167 27.2827 19.6247 26.5511 17.9203 25.4043C15.9505 24.0789 17.2275 23.3505 18.35 22.1601C18.6438 21.8485 23.7485 17.1078 23.8473 16.6777C23.8597 16.6239 23.8712 16.4234 23.7545 16.3176C23.6379 16.2117 23.4657 16.2479 23.3414 16.2767C23.1653 16.3175 20.3602 18.2106 14.9261 21.9559C14.1298 22.5141 13.4087 22.7861 12.7625 22.7718C12.0501 22.7561 10.6799 22.3606 9.66122 22.0225C8.41179 21.6078 7.41878 21.3886 7.50525 20.6844C7.55029 20.3175 8.04503 19.9424 8.98946 19.5589Z" fill="#FFBB00"/>
</svg>
