<svg width="43" height="43" viewBox="0 0 43 43" fill="none" xmlns="http://www.w3.org/2000/svg">
<circle cx="21.5" cy="22.5" r="20.5" fill="#FFBB00"/>
<path d="M1.67956 0.543692C-1.36229 3.72146 0.412126 12.8386 1.67956 17L8.74087 13.3115L12 5.36709C9.82729 2.43522 3.58059 -1.44227 1.67956 0.543692Z" fill="#FFBB00"/>
<path d="M1.67956 0.543692C-1.36229 3.72146 0.412126 12.8386 1.67956 17L8.74087 13.3115L12 5.36709C9.82729 2.43522 3.58059 -1.44227 1.67956 0.543692Z" fill="#FFBB00"/>
<path d="M1.67956 0.543692C-1.36229 3.72146 0.412126 12.8386 1.67956 17L8.74087 13.3115L12 5.36709C9.82729 2.43522 3.58059 -1.44227 1.67956 0.543692Z" fill="#FFBB00"/>
<path d="M1.67956 0.543692C-1.36229 3.72146 0.412126 12.8386 1.67956 17L8.74087 13.3115L12 5.36709C9.82729 2.43522 3.58059 -1.44227 1.67956 0.543692Z" fill="#FFBB00"/>
<path d="M1.67956 0.543692C-1.36229 3.72146 0.412126 12.8386 1.67956 17L8.74087 13.3115L12 5.36709C9.82729 2.43522 3.58059 -1.44227 1.67956 0.543692Z" fill="#FFBB00"/>
<path d="M41.3204 0.543692C44.3623 3.72146 42.5879 12.8386 41.3204 17L34.2591 13.3115L31 5.36709C33.1727 2.43522 39.4194 -1.44227 41.3204 0.543692Z" fill="#FFBB00"/>
<path d="M41.3204 0.543692C44.3623 3.72146 42.5879 12.8386 41.3204 17L34.2591 13.3115L31 5.36709C33.1727 2.43522 39.4194 -1.44227 41.3204 0.543692Z" fill="#FFBB00"/>
<path d="M41.3204 0.543692C44.3623 3.72146 42.5879 12.8386 41.3204 17L34.2591 13.3115L31 5.36709C33.1727 2.43522 39.4194 -1.44227 41.3204 0.543692Z" fill="#FFBB00"/>
<path d="M41.3204 0.543692C44.3623 3.72146 42.5879 12.8386 41.3204 17L34.2591 13.3115L31 5.36709C33.1727 2.43522 39.4194 -1.44227 41.3204 0.543692Z" fill="#FFBB00"/>
<path d="M41.3204 0.543692C44.3623 3.72146 42.5879 12.8386 41.3204 17L34.2591 13.3115L31 5.36709C33.1727 2.43522 39.4194 -1.44227 41.3204 0.543692Z" fill="#FFBB00"/>
</svg>
